<svg width="915" height="466" viewBox="0 0 915 466" fill="none" xmlns="http://www.w3.org/2000/svg">
<path d="M746.792 276.192H533.424V294.26L647.663 331.434H533.424V352.692L622.17 386.675H533.424V411.123L657.029 465.565V417.455L785.564 465.564V423.738L914.103 465.563V276.192L746.792 276.192ZM657.029 298.939L774.546 331.434H657.029V298.939ZM657.029 358.197L744.547 386.675H657.029V358.197ZM785.564 386.675V363.659L866.924 386.675H785.564ZM901.431 331.434H785.564V303.58L901.431 331.434ZM426.737 276.192H528.489V465.565L426.737 411.123V386.675H499.794L426.737 352.692V331.434H520.779L426.737 294.26V276.192ZM320.054 276.192H399.954V465.565L320.054 411.123V386.675H377.421L320.054 352.692V331.434H393.899L320.054 294.26V276.192ZM213.372 276.192H271.419V465.566L213.372 411.123V386.675H255.048L213.372 352.693V331.434H267.02L213.372 294.261V276.192ZM106.686 276.192H142.88V465.561L106.686 411.118V386.675H132.676L106.686 352.688V331.434H140.14L106.686 294.257V276.192ZM0.00391006 276.192H14.3448V400.027L14.3409 400.014V465.555L0 411.112V386.675H10.2994L0.00391006 352.696V331.434H13.2571L0.00391006 294.263V276.192ZM785.564 220.959H914.103V268.938L785.564 243.501V268.938L657.029 239.681V268.939L533.424 235.829V220.959L785.564 220.959ZM426.737 220.959H528.489V268.939L426.737 235.829V220.959ZM320.054 220.959H399.954V268.939L320.054 235.829V220.959ZM213.372 220.959H271.419V268.939L213.372 235.83V220.959ZM106.686 220.959H142.88V268.936L106.686 235.826V220.959ZM0.00391006 220.959H14.3448V268.941L0.00391006 235.832V220.959ZM785.564 165.717H914.103V203.389L785.564 183.415V203.389L657.029 180.415V203.39L533.424 177.391V165.717L785.564 165.717ZM426.737 165.717H528.489V203.39L426.737 177.391V165.717ZM320.054 165.717H399.954V203.39L320.054 177.391V165.717ZM213.372 165.717H271.419V203.39L213.372 177.391V165.717ZM106.686 165.717H142.88V203.388L106.686 177.388V165.717ZM0.00391006 165.717H14.3448V203.392L0.00391006 177.393V165.717ZM785.564 110.48H914.103V137.851L785.564 123.34V137.851L657.029 121.161V137.852L533.424 118.964V110.48L785.564 110.48ZM426.737 110.48H528.489V137.851L426.737 118.964V110.48ZM320.054 110.48H399.954V137.852L320.054 118.964V110.48ZM213.372 110.48H271.419V137.852L213.372 118.964V110.48ZM106.686 110.48H142.88V137.85L106.686 118.962V110.48ZM0.00391006 110.48H14.3448V137.853L0.00391006 118.965V110.48ZM785.564 55.2375H914.103V72.3051L785.564 63.2573V72.3052L657.029 61.8983V72.3055L533.424 60.5284V55.2376L785.564 55.2375ZM426.737 55.2375H528.489V72.3055L426.737 60.5284V55.2375ZM320.054 55.2375H399.954V72.3055L320.054 60.5283V55.2375ZM213.372 55.2375H271.419V72.3057L213.372 60.5285V55.2375ZM106.686 55.2375H142.88V72.3046L106.686 60.5273V55.2375ZM0.00391006 55.2375H14.3448V72.3063L0.00391006 60.5293V55.2375ZM914.103 0V6.75983L785.564 3.17475V6.75989L657.029 2.63623V6.76001L533.424 2.09345V9.53674e-06L914.103 0ZM426.737 0H528.489V6.76001L426.737 2.09345V0ZM320.054 0H399.954V6.76001L320.054 2.09345V0ZM213.372 0H271.419V6.76007L213.372 2.09351V0ZM106.686 0H142.88V6.75958L106.686 2.09302V0ZM0.00391006 0H14.3448V6.76031L0.00391006 2.09381V0Z" fill="#9DF5EA"/>
</svg>
